<svg id="Layer_1" data-name="Layer 1" xmlns="http://www.w3.org/2000/svg" viewBox="0 0 126.46 126.46"><defs><style>.cls-1{fill:#134f78;}.cls-2{fill:#5bc9f2;}.cls-3{fill:#414141;}</style></defs><title>128×128</title><path class="cls-1" d="M64.46,43.05h0a17.07,17.07,0,0,1-7.84,7.73l-6.5,3.14a7.41,7.41,0,0,0-1.91,12l.62.59H80.08L80.7,66a7.41,7.41,0,0,0-1.91-12l-6.5-3.14a17.07,17.07,0,0,1-7.84-7.73Z" transform="translate(-0.77 -0.77)"/><path class="cls-2" d="M82.87,90.28H46V70a3.54,3.54,0,0,1,3.54-3.54H79.33A3.54,3.54,0,0,1,82.87,70Z" transform="translate(-0.77 -0.77)"/><path class="cls-3" d="M71.36,90.28V76.73c0-3.63-6.9-5.84-6.9-5.84s-6.9,2.22-6.9,5.84V90.28Z" transform="translate(-0.77 -0.77)"/><path class="cls-3" d="M79.88,77c0-1.08-2.72-3.12-2.72-3.12s-2.72,2-2.72,3.12v8.11h5.45Z" transform="translate(-0.77 -0.77)"/><path class="cls-3" d="M54.48,77c0-1.08-2.72-3.12-2.72-3.12S49,75.93,49,77v8.11h5.45Z" transform="translate(-0.77 -0.77)"/><path class="cls-1" d="M69.44,42.22a5.32,5.32,0,0,1-5.24-9.1l-.13,0a5.68,5.68,0,1,0,5.39,9.07Z" transform="translate(-0.77 -0.77)"/><polygon class="cls-1" points="65.85 33.92 66.57 35.92 68.69 35.99 67.01 37.29 67.61 39.33 65.85 38.14 64.09 39.33 64.68 37.29 63 35.99 65.13 35.92 65.85 33.92"/><polygon class="cls-2" points="107.94 44.71 97.13 49.19 111.18 63.23 111.17 63.23 97.13 77.27 107.94 81.75 126.46 63.23 107.94 44.71"/><polygon class="cls-2" points="63.23 111.17 63.23 111.17 49.19 97.13 44.71 107.94 63.23 126.46 81.75 107.94 77.27 97.13 63.23 111.17"/><polygon class="cls-2" points="63.23 15.28 77.27 29.33 81.75 18.52 63.23 0 44.71 18.52 49.19 29.33 63.23 15.28"/><polygon class="cls-2" points="18.52 44.71 0 63.23 0 63.23 18.52 81.75 29.33 77.27 15.28 63.23 15.28 63.23 29.33 49.19 18.52 44.71"/><polygon class="cls-1" points="29.33 77.27 18.52 81.75 18.52 107.94 44.71 107.94 49.19 97.13 29.33 97.13 29.33 77.27"/><polygon class="cls-1" points="97.13 97.13 77.27 97.13 81.75 107.94 107.94 107.94 107.94 81.75 97.13 77.27 97.13 97.13"/><polygon class="cls-1" points="81.75 18.52 77.27 29.33 97.13 29.33 97.13 49.19 107.94 44.71 107.94 18.52 81.75 18.52"/><polygon class="cls-1" points="29.33 29.33 49.19 29.33 44.71 18.52 18.52 18.52 18.52 44.71 29.33 49.19 29.33 29.33"/></svg>