<svg id="Layer_1" data-name="Layer 1" xmlns="http://www.w3.org/2000/svg" viewBox="0 0 15.64 15.64"><defs><style>.cls-1{fill:#134f78;}.cls-2{fill:#5bc9f2;}.cls-3{fill:#414141;}</style></defs><title>16×16</title><path class="cls-1" d="M8.06,5.41h0a2.11,2.11,0,0,1-1,1l-.8.39A.92.92,0,0,0,6,8.24l.08.07H10l.08-.07a.92.92,0,0,0-.24-1.49L9,6.37a2.11,2.11,0,0,1-1-1Z" transform="translate(-0.18 -0.18)"/><path class="cls-2" d="M10.33,11.25H5.78V8.74a.44.44,0,0,1,.44-.44H9.9a.44.44,0,0,1,.44.44Z" transform="translate(-0.18 -0.18)"/><path class="cls-3" d="M8.91,11.25V9.57c0-.45-.85-.72-.85-.72s-.85.27-.85.72v1.68Z" transform="translate(-0.18 -0.18)"/><path class="cls-3" d="M10,9.61c0-.13-.34-.39-.34-.39s-.34.25-.34.39v1H10Z" transform="translate(-0.18 -0.18)"/><path class="cls-3" d="M6.82,9.61c0-.13-.34-.39-.34-.39s-.34.25-.34.39v1h.67Z" transform="translate(-0.18 -0.18)"/><path class="cls-1" d="M8.67,5.31A.66.66,0,0,1,8,4.18H8a.7.7,0,1,0,.67,1.12Z" transform="translate(-0.18 -0.18)"/><polygon class="cls-1" points="8.14 4.2 8.23 4.44 8.49 4.45 8.29 4.61 8.36 4.87 8.14 4.72 7.93 4.87 8 4.61 7.79 4.45 8.05 4.44 8.14 4.2"/><polygon class="cls-2" points="13.35 5.53 12.01 6.08 13.75 7.82 13.75 7.82 12.01 9.56 13.35 10.11 15.64 7.82 13.35 5.53"/><polygon class="cls-2" points="7.82 13.75 7.82 13.75 6.08 12.01 5.53 13.35 7.82 15.64 10.11 13.35 9.56 12.01 7.82 13.75"/><polygon class="cls-2" points="7.82 1.89 9.56 3.63 10.11 2.29 7.82 0 5.53 2.29 6.08 3.63 7.82 1.89"/><polygon class="cls-2" points="2.29 5.53 0 7.82 0 7.82 2.29 10.11 3.63 9.56 1.89 7.82 1.89 7.82 3.63 6.08 2.29 5.53"/><polygon class="cls-1" points="3.63 9.56 2.29 10.11 2.29 13.35 5.53 13.35 6.08 12.01 3.63 12.01 3.63 9.56"/><polygon class="cls-1" points="12.01 12.01 9.56 12.01 10.11 13.35 13.35 13.35 13.35 10.11 12.01 9.56 12.01 12.01"/><polygon class="cls-1" points="10.11 2.29 9.56 3.63 12.01 3.63 12.01 6.08 13.35 5.53 13.35 2.29 10.11 2.29"/><polygon class="cls-1" points="3.63 3.63 6.08 3.63 5.53 2.29 2.29 2.29 2.29 5.53 3.63 6.08 3.63 3.63"/></svg>