<svg id="Layer_1" data-name="Layer 1" xmlns="http://www.w3.org/2000/svg" viewBox="0 0 37.48 37.48"><defs><style>.cls-1{fill:#134f78;}.cls-2{fill:#5bc9f2;}.cls-3{fill:#414141;}</style></defs><title>38×38</title><path class="cls-1" d="M19.14,12.79h0a5.06,5.06,0,0,1-2.32,2.29L14.89,16a2.2,2.2,0,0,0-.56,3.56l.18.18h9.26l.18-.18A2.2,2.2,0,0,0,23.38,16l-1.92-.93a5.06,5.06,0,0,1-2.32-2.29Z" transform="translate(-0.26 -0.26)"/><path class="cls-2" d="M24.59,26.79H13.68v-6a1,1,0,0,1,1-1h8.82a1,1,0,0,1,1,1Z" transform="translate(-0.26 -0.26)"/><path class="cls-3" d="M21.18,26.79v-4c0-1.07-2-1.73-2-1.73s-2,.66-2,1.73v4Z" transform="translate(-0.26 -0.26)"/><path class="cls-3" d="M23.71,22.86c0-.32-.81-.92-.81-.92s-.81.6-.81.92v2.4h1.61Z" transform="translate(-0.26 -0.26)"/><path class="cls-3" d="M16.18,22.86c0-.32-.81-.92-.81-.92s-.81.6-.81.92v2.4h1.61Z" transform="translate(-0.26 -0.26)"/><path class="cls-1" d="M20.61,12.55a1.58,1.58,0,0,1-1.55-2.7h0a1.68,1.68,0,1,0,1.6,2.69Z" transform="translate(-0.26 -0.26)"/><polygon class="cls-1" points="19.52 10.05 19.73 10.65 20.36 10.67 19.86 11.05 20.04 11.66 19.52 11.3 18.99 11.66 19.17 11.05 18.67 10.67 19.3 10.65 19.52 10.05"/><polygon class="cls-2" points="31.99 13.25 28.79 14.58 32.95 18.74 32.95 18.74 28.79 22.9 31.99 24.23 37.48 18.74 31.99 13.25"/><polygon class="cls-2" points="18.74 32.95 18.74 32.95 14.58 28.79 13.25 31.99 18.74 37.48 24.23 31.99 22.9 28.79 18.74 32.95"/><polygon class="cls-2" points="18.74 4.53 22.9 8.69 24.23 5.49 18.74 0 13.25 5.49 14.58 8.69 18.74 4.53"/><polygon class="cls-2" points="5.49 13.25 0 18.74 0 18.74 5.49 24.23 8.69 22.9 4.53 18.74 4.53 18.74 8.69 14.58 5.49 13.25"/><polygon class="cls-1" points="8.69 22.9 5.49 24.23 5.49 31.99 13.25 31.99 14.58 28.79 8.69 28.79 8.69 22.9"/><polygon class="cls-1" points="28.79 28.79 22.9 28.79 24.23 31.99 31.99 31.99 31.99 24.23 28.79 22.9 28.79 28.79"/><polygon class="cls-1" points="24.23 5.49 22.9 8.69 28.79 8.69 28.79 14.58 31.99 13.25 31.99 5.49 24.23 5.49"/><polygon class="cls-1" points="8.69 8.69 14.58 8.69 13.25 5.49 5.49 5.49 5.49 13.25 8.69 14.58 8.69 8.69"/></svg>